<?xml version="1.0" encoding="UTF-8"?>
<svg xmlns="http://www.w3.org/2000/svg" xmlns:xlink="http://www.w3.org/1999/xlink" width="500px" height="px" viewBox="0 0 500 500" version="1.1">
<g id="surface1">
<path style=" stroke:none;fill-rule:nonzero;fill:rgb(38.823529%,40%,94.509804%);fill-opacity:1;" d="M 500 250 C 500 388.070312 388.070312 500 250 500 C 111.929688 500 0 388.070312 0 250 C 0 111.929688 111.929688 0 250 0 C 388.070312 0 500 111.929688 500 250 Z M 500 250 "/>
<path style=" stroke:none;fill-rule:nonzero;fill:rgb(100%,100%,100%);fill-opacity:1;" d="M 413.386719 219.683594 L 250 87.402344 L 187.007812 138.582031 L 187.007812 118.503906 L 146.0625 118.503906 L 146.0625 171.652344 L 86.613281 219.683594 L 124.015625 219.683594 L 124.015625 412.597656 L 375.984375 412.597656 L 375.984375 219.683594 Z M 413.386719 219.683594 "/>
<path style=" stroke:none;fill-rule:nonzero;fill:rgb(38.823529%,40%,94.509804%);fill-opacity:1;" d="M 347.242188 275.984375 C 347.242188 329.691406 303.707031 373.226562 250 373.226562 C 196.292969 373.226562 152.757812 329.691406 152.757812 275.984375 C 152.757812 222.277344 196.292969 178.738281 250 178.738281 C 303.707031 178.738281 347.242188 222.277344 347.242188 275.984375 Z M 347.242188 275.984375 "/>
<path style=" stroke:none;fill-rule:nonzero;fill:rgb(100%,100%,100%);fill-opacity:1;" d="M 332.675781 275.984375 C 332.675781 321.644531 295.660156 358.660156 250 358.660156 C 204.339844 358.660156 167.324219 321.644531 167.324219 275.984375 C 167.324219 230.324219 204.339844 193.308594 250 193.308594 C 295.660156 193.308594 332.675781 230.324219 332.675781 275.984375 Z M 332.675781 275.984375 "/>
<path style=" stroke:none;fill-rule:nonzero;fill:rgb(38.823529%,40%,94.509804%);fill-opacity:1;" d="M 322.441406 275.984375 C 322.441406 315.992188 290.007812 348.425781 250 348.425781 C 209.992188 348.425781 177.558594 315.992188 177.558594 275.984375 C 177.558594 235.976562 209.992188 203.542969 250 203.542969 C 290.007812 203.542969 322.441406 235.976562 322.441406 275.984375 Z M 322.441406 275.984375 "/>
<path style=" stroke:none;fill-rule:nonzero;fill:rgb(100%,100%,100%);fill-opacity:1;" d="M 250 270.867188 C 239.371094 270.867188 231.101562 262.203125 231.101562 251.96875 C 231.101562 241.339844 239.765625 233.070312 250 233.070312 C 260.628906 233.070312 268.898438 241.730469 268.898438 251.96875 C 268.898438 254.722656 271.261719 257.085938 274.015625 257.085938 C 276.773438 257.085938 279.132812 254.722656 279.132812 251.96875 C 279.132812 237.402344 268.503906 225.589844 255.117188 223.226562 L 255.117188 219.683594 C 255.117188 216.929688 252.757812 214.566406 250 214.566406 C 247.242188 214.566406 244.882812 216.929688 244.882812 219.683594 L 244.882812 223.226562 C 231.101562 225.589844 220.867188 237.796875 220.867188 251.96875 C 220.867188 268.109375 233.859375 281.496094 250.394531 281.496094 C 261.023438 281.496094 269.292969 290.15625 269.292969 300.394531 C 269.292969 310.628906 260.628906 319.292969 250.394531 319.292969 C 239.765625 319.292969 231.496094 310.628906 231.496094 300.394531 C 231.496094 297.636719 229.132812 295.277344 226.378906 295.277344 C 223.621094 295.277344 221.261719 297.636719 221.261719 300.394531 C 221.261719 314.960938 231.890625 326.773438 245.277344 329.132812 L 245.277344 332.675781 C 245.277344 335.433594 247.636719 337.796875 250.394531 337.796875 C 253.148438 337.796875 255.511719 335.433594 255.511719 332.675781 L 255.511719 329.132812 C 269.292969 326.773438 279.527344 314.566406 279.527344 300.394531 C 279.527344 284.253906 266.140625 270.867188 250 270.867188 Z M 250 270.867188 "/>
</g>
</svg>
